<?xml version="1.0" encoding="utf-8"?>
<!-- Generator: Adobe Illustrator 19.0.0, SVG Export Plug-In . SVG Version: 6.00 Build 0)  -->
<svg version="1.1" id="Capa_1" xmlns:serif="http://www.serif.com/"
	 xmlns="http://www.w3.org/2000/svg" xmlns:xlink="http://www.w3.org/1999/xlink" x="0px" y="0px" viewBox="0 0 841.9 595.3"
	 style="enable-background:new 0 0 841.9 595.3;" xml:space="preserve">
<style type="text/css">
	.st0{fill:#CFCFCF;}
</style>
<g>
	
		<rect x="45.1" y="289" transform="matrix(0.7071 -0.7071 0.7071 0.7071 -86.8649 384.0905)" class="st0" width="750.3" height="15.7"/>
	<path class="st0" d="M328.6,488.1h6.1c30.6,0,55.1-24.5,55.1-55.1v-65.6l-19.1,19.3v46.3c0,19.9-16.1,36-36,36h-6.1
		c-10.9,0-20.7-4.8-27.3-12.5l-13.6,13.7C297.8,481.2,312.3,488.1,328.6,488.1z"/>
	<path class="st0" d="M496.6,488.1h6.1c30.6,0,55.1-24.5,55.1-55.1v-98.8h-58.2v19.1h39v79.6c0,19.9-16.1,36-36,36h-6.1
		c-19.9,0-36-16.1-36-36V296.1l-19.1,19.3v117.6C441.5,463.6,466,488.1,496.6,488.1z"/>
	<path class="st0" d="M538.7,230.8V279h19.1v-48.2c0-9.5-2.3-18.3-6.5-26.1l-14.5,14.6C538.1,223,538.7,226.8,538.7,230.8z"/>
	<path class="st0" d="M269,398.9v-60.5h-19.1v60.5c0,8,1.7,15.6,4.7,22.4l15.2-15.2C269.2,403.9,269,401.4,269,398.9z"/>
	<polygon class="st0" points="347.1,144 347.1,328.9 366.2,309.8 366.2,144 	"/>
	<path class="st0" d="M479.2,141.7H473c-30.6,0-55.1,24.5-55.1,55.1v61.3L437,239v-42.2c0-19.9,16.1-36,36-36h6.1
		c10,0,19,4,25.5,10.6l13.6-13.6C508.3,147.8,494.5,141.7,479.2,141.7z"/>
</g>
</svg>
